<?xml version="1.0" encoding="UTF-8" standalone="no"?>
<!-- Created with Inkscape (http://www.inkscape.org/) -->

<svg
   xmlns:dc="http://purl.org/dc/elements/1.1/"
   xmlns:cc="http://creativecommons.org/ns#"
   xmlns:rdf="http://www.w3.org/1999/02/22-rdf-syntax-ns#"
   xmlns:svg="http://www.w3.org/2000/svg"
   xmlns="http://www.w3.org/2000/svg"
   xmlns:sodipodi="http://sodipodi.sourceforge.net/DTD/sodipodi-0.dtd"
   xmlns:inkscape="http://www.inkscape.org/namespaces/inkscape"
   width="350"
   height="200"
   viewBox="0 0 350 200"
   version="1.1"
   id="svg8"
   sodipodi:docname="car.svg"
   inkscape:version="0.92.4 (5da689c313, 2019-01-14)">
  <defs
     id="defs2">
    <inkscape:path-effect
       effect="simplify"
       id="path-effect14"
       is_visible="true"
       steps="1"
       threshold="0.0002"
       smooth_angles="360"
       helper_size="0"
       simplify_individual_paths="false"
       simplify_just_coalesce="false"
       simplifyindividualpaths="false"
       simplifyJustCoalesce="false" />
  </defs>
  <sodipodi:namedview
     id="base"
     pagecolor="#ffffff"
     bordercolor="#666666"
     borderopacity="1.0"
     inkscape:pageopacity="0.0"
     inkscape:pageshadow="2"
     inkscape:zoom="0.98994949"
     inkscape:cx="214.51265"
     inkscape:cy="122.8355"
     inkscape:document-units="px"
     inkscape:current-layer="layer1"
     showgrid="false"
     units="px"
     inkscape:window-width="1366"
     inkscape:window-height="705"
     inkscape:window-x="-8"
     inkscape:window-y="-8"
     inkscape:window-maximized="1" />
  <metadata
     id="metadata5">
    <rdf:RDF>
      <cc:Work
         rdf:about="">
        <dc:format>image/svg+xml</dc:format>
        <dc:type
           rdf:resource="http://purl.org/dc/dcmitype/StillImage" />
        <dc:title></dc:title>
      </cc:Work>
    </rdf:RDF>
  </metadata>
  <g
     inkscape:label="Calque 1"
     inkscape:groupmode="layer"
     id="layer1"
     transform="translate(0,-244.08332)">
     /&gt;
    <path
   id="car"
   d="m 215.2075,397.60282 c -33.37443,0.0685 -66.74881,0.2368 -100.12329,0.21274 -29.995463,-0.0216 -60.565461,-5.85592 -89.986533,-0.0137 -1.291509,0.25646 -2.355885,-0.58759 -3.398739,-1.21058 -2.834545,-1.69332 -5.775284,-3.83901 -6.86691,-7.09529 -0.881875,-2.6306 -0.08741,-5.59863 1.587906,-7.64555 0.857868,-1.04815 1.257986,-2.62887 2.671885,-3.10254 1.780189,-0.59638 5.644429,0.99107 5.534226,-0.87159 -0.321314,-5.43087 -0.625294,-11.0074 0.736784,-16.29758 0.889864,-3.45615 1.891717,-6.89244 3.123186,-10.24325 1.284026,-3.49382 3.205817,-6.71239 5.629723,-9.59753 2.741242,-3.26287 5.515107,-6.54681 8.927012,-9.14406 3.42352,-2.60609 6.900999,-5.55813 11.076697,-6.58325 5.052408,-1.24035 10.081247,-2.57992 15.151879,-3.74337 4.125431,-0.94657 8.831323,-0.52705 12.376291,-2.83971 2.885509,-1.88243 6.431004,-3.01935 8.66935,-5.63265 7.65871,-8.94165 13.926063,-19.29557 22.968223,-26.83295 4.81956,-4.01751 8.98058,-8.99469 14.45159,-12.06278 3.51112,-1.96901 6.62223,-4.95407 10.53335,-5.90702 8.25175,-2.01057 16.52155,-4.05118 24.93684,-5.23832 8.58108,-1.21052 17.28181,-1.18129 25.91264,-0.60667 5.28914,0.35213 10.59358,0.57657 15.85836,1.19665 14.5214,1.71031 28.44622,6.97033 41.15295,14.0745 10.73122,5.99968 20.29765,13.84036 29.25544,22.29105 0.98926,0.93326 1.5462,2.19196 2.22667,3.34741 5.87221,9.97113 14.45642,18.78148 17.61662,29.91339 1.49702,5.27329 3.45536,10.43729 4.50296,15.81706 0.59701,3.06584 0.85049,6.21932 1.76971,9.20277 0.93349,3.02975 1.15585,6.38016 2.78532,9.09599 1.22043,2.03409 1.93608,4.47421 3.6613,6.10227 1.73919,1.64124 3.40623,3.43219 5.59898,4.4876 1.43124,0.68888 2.7035,1.81979 3.1513,3.40743 0.87198,3.09155 0.49728,6.38349 -0.14894,9.47911 -0.47111,2.25678 -2.6503,3.6142 -4.64225,4.35682 -1.36478,0.5088 -2.76365,1.03018 -4.25297,1.05075 -30.88772,0.42652 -61.77543,0.85305 -92.66315,1.27958"
   inkscape:connector-curvature="0"
   style="opacity:1;fill:#00fff2;fill-opacity:1;stroke:#000000;stroke-width:4;stroke-linejoin:round;stroke-miterlimit:4;stroke-dasharray:none;stroke-opacity:1" />
<path
   id="wheel-inner-front"
   d="m 106.71156,397.10831 a 35.36726,36.281925 0 0 1 -35.367261,36.28192 35.36726,36.281925 0 0 1 -35.36726,-36.28192 35.36726,36.281925 0 0 1 35.36726,-36.28193 35.36726,36.281925 0 0 1 35.367261,36.28193 z"
   inkscape:connector-curvature="0"
   style="opacity:1;fill:#ffffff;fill-opacity:1;stroke:#000000;stroke-width:4;stroke-linejoin:round;stroke-miterlimit:4;stroke-dasharray:none;stroke-opacity:1" />
<path
   id="wheel-outer-front"
   d="M 93.906162,397.88875 A 21.952091,22.256979 0 0 1 71.954071,420.14573 21.952091,22.256979 0 0 1 50.00198,397.88875 21.952091,22.256979 0 0 1 71.954071,375.63177 21.952091,22.256979 0 0 1 93.906162,397.88875"
   inkscape:connector-curvature="0"
   style="opacity:1;fill:#cccccc;fill-opacity:1;stroke:#000000;stroke-width:4;stroke-linejoin:round;stroke-miterlimit:4;stroke-dasharray:none;stroke-opacity:1" />
<path
   id="wheel-inner-back"
   d="m 271.35221,396.8034 a 35.36726,36.281925 0 0 1 -35.36726,36.28192 35.36726,36.281925 0 0 1 -35.36726,-36.28192 35.36726,36.281925 0 0 1 35.36726,-36.28193 35.36726,36.281925 0 0 1 35.36726,36.28193 z"
   inkscape:connector-curvature="0"
   style="opacity:1;fill:#ffffff;fill-opacity:1;stroke:#000000;stroke-width:4;stroke-linejoin:round;stroke-miterlimit:4;stroke-dasharray:none;stroke-opacity:1" />
<path
   id="wheel-outer-back"
   d="m 259.15662,396.19362 a 21.952091,22.256979 0 0 1 -21.95209,22.25698 21.952091,22.256979 0 0 1 -21.95209,-22.25698 21.952091,22.256979 0 0 1 21.95209,-22.25698 21.952091,22.256979 0 0 1 21.95209,22.25698 z"
   inkscape:connector-curvature="0"
   style="opacity:1;fill:#cccccc;fill-opacity:1;stroke:#000000;stroke-width:4;stroke-linejoin:round;stroke-miterlimit:4;stroke-dasharray:none;stroke-opacity:1" />
<path
   id="window-front"
   d="m 157.59621,280.22472 c -4.54869,-0.92904 -9.27334,-0.53345 -13.75912,0.54234 -4.8523,1.1637 -9.53541,2.98961 -13.95597,5.27966 -3.85485,1.99699 -7.28736,4.71286 -10.49313,7.61553 -5.57195,5.04513 -10.60261,10.66155 -15.29827,16.52103 -3.65347,4.55898 -7.247627,9.18863 -10.33958,14.14835 -0.738974,1.18536 -1.38502,2.42568 -2.081886,3.64056 -0.227282,0.39623 -0.277855,0.54761 0.701099,0.5376 17.543917,-0.17927 35.090757,-0.27863 52.629067,-0.76912 3.94795,-0.11041 7.90284,-0.12506 11.84142,-0.42627 0.32437,-0.0248 0.97345,0.23448 0.97196,-0.0911 -0.0719,-15.6662 -0.14373,-31.3324 -0.21559,-46.9986 z"
   inkscape:connector-curvature="0"
   style="opacity:1;fill:#ffffff;fill-opacity:1;stroke:#000000;stroke-width:4;stroke-linejoin:round;stroke-miterlimit:4;stroke-dasharray:none;stroke-opacity:1" />
<path
   id="window-back"
   d="m 169.66924,279.14677 c -0.0778,14.02031 -0.30097,28.04207 -0.11455,42.06147 0.0264,1.98461 -0.94636,4.27201 0.10772,5.95444 0.32241,0.5146 1.14456,0.49783 1.70127,0.57563 3.55271,0.49648 7.13973,0.69413 10.71935,0.87656 12.92043,0.65847 25.85786,0.95942 38.79371,1.03448 9.91043,0.0575 19.83224,0.18116 29.72983,-0.36277 2.91581,-0.16025 5.95555,0.15425 8.73018,-0.77252 0.51826,-0.17311 1.90793,-0.16086 1.60274,-0.6977 -0.19343,-0.34024 0.35391,-0.024 0.54871,0.0348 0.493,0.14877 0.48781,-0.41429 0.33982,-0.73809 -0.51993,-1.13758 -1.30633,-2.12931 -2.08633,-3.0961 -2.93619,-3.63938 -6.13883,-7.05526 -9.41006,-10.39235 -3.62942,-3.70248 -7.31457,-7.35911 -11.22316,-10.76878 -1.12329,-0.9799 -2.30658,-1.89051 -3.57221,-2.68216 -4.49066,-2.80891 -9.13372,-5.37034 -13.85094,-7.77563 -5.69614,-2.90443 -11.47027,-5.71251 -17.52089,-7.79837 -2.81061,-0.96891 -5.86425,-1.09407 -8.65265,-2.16185 -2.17702,-0.83366 -4.49244,-1.2271 -6.79215,-1.53779 -5.95904,-0.80506 -11.97069,-1.09148 -17.95471,-1.6481 -0.36533,-0.034 -0.73057,-0.069 -1.09568,-0.10516 z"
   inkscape:connector-curvature="0"
   style="opacity:1;fill:#ffffff;fill-opacity:1;stroke:#000000;stroke-width:4;stroke-linejoin:round;stroke-miterlimit:4;stroke-dasharray:none;stroke-opacity:1" />
<path
   id="knob"
   d="m 138.49566,337.17917 h 11.43473 c 0.8864,0 1.6,2.07371 1.6,4.64957 0,2.57587 -0.7136,4.64958 -1.6,4.64958 h -11.43473 c -0.8864,0 -1.6,-2.07371 -1.6,-4.64958 0,-2.57586 0.7136,-4.64957 1.6,-4.64957 z"
   inkscape:connector-curvature="0"
   style="opacity:1;fill:#333333;fill-opacity:1;stroke:#000000;stroke-width:4;stroke-linejoin:round;stroke-miterlimit:4;stroke-dasharray:none;stroke-opacity:1" />
<path
   id="light"
   d="m 25.797753,353.01124 c -0.822618,-0.0894 -1.655125,-0.0661 -2.476672,0.0212 -2.130156,0.22635 -4.217653,0.97993 -5.941878,2.26564 -1.549627,1.15553 -2.738286,2.74263 -3.572614,4.47872 -0.736224,1.53195 -1.150119,3.23185 -1.09457,4.9378 0.05884,1.8069 0.661977,3.56813 1.597579,5.1054 0.869849,1.42923 1.97426,2.72496 3.285167,3.76244 0.146786,0.11617 0.262156,0.33191 0.447875,0.34135 2.117926,0.10769 6.214141,2.43914 6.353779,0.32308 0.467111,-7.07853 0.934223,-14.15707 1.401334,-21.23561 z"
   inkscape:connector-curvature="0"
   style="opacity:1;fill:#ff4500;fill-opacity:1;stroke:#000000;stroke-width:4;stroke-linejoin:round;stroke-miterlimit:4;stroke-dasharray:none;stroke-opacity:1" />
</g>
</svg>
